PathFileType	4	(X/Y/Z) shrug_2kg_1.trc																										
DataRate	CameraRate	NumFrames	NumMarkers	Units	OrigDataRate	OrigDataStartFrame	OrigNumFrames																					
100	100	34	9	mm	100	248	433																					
Frame#	Time	gu			centelbow			EpL			centpxt8			centijc7			ij			ts			aa			ai		
		X1	Y1	Z1	X2	Y2	Z2	X3	Y3	Z3	X4	Y4	Z4	X5	Y5	Z5	X6	Y6	Z6	X7	Y7	Z7	X8	Y8	Z8	X9	Y9	Z9
247	2.47	-98.938	49.201	159.175	-132.109	-190.381	209.019	-120.973	-181.773	238.024	-46.816	-153.158	-8.669	-46.816	31.938	-8.669	0	0	0	-136.827	56.285	29.755	-130.837	85.593	145.211	-159.228	-49.84	63.241
248	2.48	-99.085	49.516	159.493	-132.338	-190.081	209.211	-121.204	-181.491	238.222	-46.816	-153.158	-8.669	-46.816	31.938	-8.669	0	0	0	-136.771	56.401	29.926	-130.785	85.568	145.417	-159.202	-49.759	63.281
249	2.49	-99.169	49.56	159.959	-132.603	-190.058	209.45	-121.46	-181.504	238.468	-46.816	-153.158	-8.669	-46.816	31.938	-8.669	0	0	0	-136.651	56.294	30.33	-130.647	85.226	145.879	-159.157	-49.917	63.472
250	2.5	-99.291	49.322	160.431	-132.991	-190.342	209.521	-121.803	-181.856	238.542	-46.816	-153.158	-8.669	-46.816	31.938	-8.669	0	0	0	-136.6	56.119	30.961	-130.517	84.658	146.604	-159.189	-50.182	63.759
251	2.51	-99.209	48.958	160.796	-133.29	-190.787	209.221	-121.986	-182.421	238.233	-46.816	-153.158	-8.669	-46.816	31.938	-8.669	0	0	0	-136.665	56.055	31.69	-130.3	83.958	147.473	-159.296	-50.398	63.958
252	2.52	-98.351	48.349	161.04	-133.014	-191.506	208.501	-121.482	-183.327	237.476	-46.816	-153.158	-8.669	-46.816	31.938	-8.669	0	0	0	-136.609	56.04	32.249	-129.561	82.997	148.216	-159.218	-50.638	63.782
253	2.53	-96.532	47.232	161.262	-131.949	-192.737	207.574	-120.087	-184.799	236.483	-46.816	-153.158	-8.669	-46.816	31.938	-8.669	0	0	0	-136.204	55.93	32.522	-128.074	81.672	148.695	-158.704	-51.035	63.15
254	2.54	-94.463	45.801	161.453	-130.537	-194.275	206.687	-118.329	-186.571	235.514	-46.816	-153.158	-8.669	-46.816	31.938	-8.669	0	0	0	-135.659	55.785	32.626	-126.386	80.209	148.998	-157.95	-51.502	62.261
255	2.55	-93.011	44.819	161.234	-129.303	-195.37	205.692	-116.808	-187.831	234.44	-46.816	-153.158	-8.669	-46.816	31.938	-8.669	0	0	0	-135.393	55.931	32.488	-125.282	79.127	149.041	-157.373	-51.686	61.147
256	2.56	-92.266	44.679	160.327	-128.281	-195.634	204.335	-115.572	-188.183	233.012	-46.816	-153.158	-8.669	-46.816	31.938	-8.669	0	0	0	-135.458	56.447	31.946	-124.923	78.614	148.661	-157.081	-51.473	59.719
257	2.57	-91.844	44.715	159.222	-127.421	-195.722	202.912	-114.549	-188.325	231.53	-46.816	-153.158	-8.669	-46.816	31.938	-8.669	0	0	0	-135.61	56.819	31.316	-125.026	78.122	148.188	-156.956	-51.36	58.287
258	2.58	-91.644	43.957	158.776	-126.939	-196.601	202.023	-113.953	-189.268	230.607	-46.816	-153.158	-8.669	-46.816	31.938	-8.669	0	0	0	-135.686	56.493	31.243	-125.389	76.994	148.283	-156.927	-51.903	57.409
259	2.59	-91.801	42.075	159.355	-126.995	-198.631	201.857	-113.931	-191.399	230.431	-46.816	-153.158	-8.669	-46.816	31.938	-8.669	0	0	0	-135.589	55.461	32.065	-125.775	75.126	149.29	-156.887	-53.129	57.367
260	2.6	-92.265	39.354	160.774	-127.457	-201.539	202.206	-114.329	-194.448	230.785	-46.816	-153.158	-8.669	-46.816	31.938	-8.669	0	0	0	-135.197	54.241	33.551	-125.762	73.02	150.953	-156.641	-54.523	57.967
261	2.61	-92.713	36.319	162.547	-128.008	-204.768	202.742	-114.805	-197.845	231.328	-46.816	-153.158	-8.669	-46.816	31.938	-8.669	0	0	0	-134.559	53.5	35.038	-125.12	71.366	152.582	-156.166	-55.417	58.617
262	2.62	-92.842	33.381	163.91	-128.328	-207.875	202.903	-115.027	-201.125	231.485	-46.816	-153.158	-8.669	-46.816	31.938	-8.669	0	0	0	-134.027	53.306	35.886	-124.177	70.238	153.534	-155.8	-55.742	58.687
263	2.63	-92.626	30.694	164.26	-128.278	-210.711	202.164	-114.86	-204.123	230.73	-46.816	-153.158	-8.669	-46.816	31.938	-8.669	0	0	0	-133.874	53.074	35.909	-123.422	69.028	153.641	-155.852	-56.093	57.933
264	2.64	-92.189	28.219	163.895	-127.953	-213.331	200.756	-114.413	-206.898	229.3	-46.816	-153.158	-8.669	-46.816	31.938	-8.669	0	0	0	-133.89	52.49	35.474	-122.863	67.347	153.298	-156.127	-56.8	56.611
265	2.65	-91.636	25.706	163.774	-127.6	-215.977	199.554	-113.95	-209.704	228.08	-46.816	-153.158	-8.669	-46.816	31.938	-8.669	0	0	0	-133.729	51.772	35.289	-122.225	65.311	153.226	-156.29	-57.659	55.322
266	2.66	-91.038	22.838	164.334	-127.307	-218.951	199.079	-113.564	-212.836	227.595	-46.816	-153.158	-8.669	-46.816	31.938	-8.669	0	0	0	-133.423	50.94	35.878	-121.534	62.978	153.94	-156.385	-58.635	54.628
267	2.67	-90.449	19.726	165.077	-126.753	-222.176	198.985	-112.927	-216.179	227.486	-46.816	-153.158	-8.669	-46.816	31.938	-8.669	0	0	0	-133.354	49.763	37.006	-121.128	60.292	155.177	-156.715	-59.942	54.458
268	2.68	-89.896	17.228	165.39	-125.471	-224.874	198.639	-111.561	-218.934	227.111	-46.816	-153.158	-8.669	-46.816	31.938	-8.669	0	0	0	-133.712	48.687	37.756	-121.104	57.852	156.001	-157.265	-61.157	54.037
269	2.69	-89.276	16.229	165.091	-123.245	-226.187	197.727	-109.234	-220.256	226.151	-46.816	-153.158	-8.669	-46.816	31.938	-8.669	0	0	0	-134.036	48.64	37.477	-120.958	56.628	155.757	-157.436	-61.382	52.751
270	2.7	-88.479	16.502	164.171	-120.411	-226.271	196.205	-106.266	-220.328	224.56	-46.816	-153.158	-8.669	-46.816	31.938	-8.669	0	0	0	-133.738	49.559	36.553	-120.185	56.486	154.846	-156.794	-60.659	50.904
271	2.71	-87.792	16.9	162.732	-117.903	-226.178	194.209	-103.581	-220.235	222.475	-46.816	-153.158	-8.669	-46.816	31.938	-8.669	0	0	0	-132.927	50.448	35.968	-119.025	56.28	154.279	-155.747	-59.942	49.345
272	2.72	-87.588	16.526	161.183	-116.519	-226.77	192.074	-102.002	-220.866	220.249	-46.816	-153.158	-8.669	-46.816	31.938	-8.669	0	0	0	-132.091	50.654	36.235	-118.014	55.29	154.578	-154.946	-59.854	48.535
273	2.73	-87.638	15.416	159.938	-116.086	-228.03	190.09	-101.404	-222.213	218.198	-46.816	-153.158	-8.669	-46.816	31.938	-8.669	0	0	0	-131.409	50.214	36.98	-117.267	53.632	155.357	-154.546	-60.352	48.188
274	2.74	-87.548	14.201	159.048	-115.944	-229.362	188.296	-101.159	-223.665	216.374	-46.816	-153.158	-8.669	-46.816	31.938	-8.669	0	0	0	-130.882	49.513	37.702	-116.699	51.8	156.101	-154.426	-61.064	47.908
275	2.75	-87.414	13.277	158.412	-115.897	-230.39	186.693	-101.076	-224.816	214.777	-46.816	-153.158	-8.669	-46.816	31.938	-8.669	0	0	0	-130.553	48.909	38.497	-116.342	50.2	156.908	-154.514	-61.655	47.828
276	2.76	-87.503	12.727	158.061	-116.055	-231.034	185.438	-101.253	-225.565	213.553	-46.816	-153.158	-8.669	-46.816	31.938	-8.669	0	0	0	-130.391	48.641	39.496	-116.169	49.087	157.912	-154.723	-61.902	48.084
277	2.77	-87.847	12.587	158.092	-116.419	-231.258	184.69	-101.676	-225.87	212.851	-46.816	-153.158	-8.669	-46.816	31.938	-8.669	0	0	0	-130.34	48.883	40.306	-116.066	48.639	158.716	-154.976	-61.638	48.298
278	2.78	-88.337	12.505	158.484	-117.057	-231.398	184.385	-102.394	-226.085	212.602	-46.816	-153.158	-8.669	-46.816	31.938	-8.669	0	0	0	-130.45	49.385	40.582	-116.048	48.57	158.974	-155.377	-61.104	48.104
279	2.79	-88.876	11.924	159.064	-118.171	-231.991	184.203	-103.602	-226.782	212.488	-46.816	-153.158	-8.669	-46.816	31.938	-8.669	0	0	0	-130.773	49.552	40.544	-116.246	48.193	158.916	-156.109	-60.872	47.637
280	2.8	-89.501	10.871	159.632	-119.951	-233.007	183.734	-105.496	-227.964	212.108	-46.816	-153.158	-8.669	-46.816	31.938	-8.669	0	0	0	-131.232	49.162	40.666	-116.707	47.156	159.029	-157.208	-61.145	47.237
